pedal_clip_forces_x_-0.1_y_-0.05.mot
version=1
nRows=146
nColumns=4
inDegrees=yes
endheader
time	PedalClip_calcn_r_Fx	PedalClip_calcn_r_Fy	PedalClip_calcn_r_Fz
0.41154289	-115.746474714247	199.261389171256	0
0.41189844	-115.424234434377	198.16367214461	0
0.41222856	-115.103616592502	197.069608072816	0
0.41226157	-114.784643263469	195.979330975799	0
0.41229458	-114.467367250747	194.893020443723	0
0.41245964	-114.151828904277	193.810765237658	0
0.41266211	-113.838035235009	192.732512314998	0
0.41320781	-113.525991520409	191.658261069368	0
0.41326238	-113.215685899069	190.588014754849	0
0.41341833	-112.907124913809	189.52179530637	0
0.41377811	-112.600315704672	188.459599953359	0
0.41412743	-112.295260696837	187.401386054173	0
0.41416236	-111.991980709203	186.347215730415	0
0.41420434	-111.690495029305	185.297178550236	0
0.41441425	-111.390839202338	184.251345874866	0
0.4146442	-111.093052031383	183.209775486133	0
0.41509038	-110.797144581411	182.172440854118	0
0.41513499	-110.503125360548	181.13934570496	0
0.41529974	-110.211004637973	180.110523208789	0
0.41561021	-109.920807895172	179.086057643743	0
0.41596903	-109.632587135973	178.066121342069	0
0.41600491	-109.346385903491	177.050884870924	0
0.4160493	-109.062201356152	176.040338793497	0
0.41627125	-108.779996197997	175.034312564595	0
0.41650385	-108.499741448752	174.032640426648	0
0.41695143	-108.221411457554	173.035158422952	0
0.41699618	-107.944960360823	172.041676408084	0
0.41712602	-107.670339108689	171.052035532805	0
0.41742173	-107.397529107374	170.066170107355	0
0.4178432	-107.126513964488	169.084009235729	0
0.41788535	-106.857258186497	168.105410650195	0
0.41795817	-106.589730865337	167.130249089436	0
0.41832227	-106.32393019895	166.158520291741	0
0.41865175	-106.059852502451	165.190245316175	0
0.4186847	-105.797458556297	164.225350048786	0
0.41872713	-105.53669306434	163.263703651531	0
0.41893929	-105.277528517194	162.305259045744	0
0.41914099	-105.01995276725	161.350027812023	0
0.41969631	-104.763967894985	160.398005692081	0
0.41975184	-104.509560799413	159.449120894588	0
0.41980737	-104.256676825831	158.503246330716	0
0.41993611	-104.005253849491	157.560269534781	0
0.42016506	-103.755254446813	156.620145025608	0
0.42051844	-103.506681259517	155.682923501498	0
0.42087264	-103.259528025681	154.74864337925	0
0.42090806	-103.013777209073	153.817292909241	0
0.42094348	-102.769427722705	152.88892403354	0
0.42112058	-102.52646075685	151.963587951071	0
0.42132222	-102.284841760276	151.041273443059	0
0.4218794	-102.044539581831	150.12197342318	0
0.42193512	-101.805501365516	149.205650875941	0
0.42202208	-101.567663118715	148.292199216383	0
0.42245686	-101.330941699641	147.381311809914	0
0.42250034	-101.095235757656	146.472613651228	0
0.42259083	-100.860468170925	145.565861733231	0
0.42298792	-100.626620802344	144.661089512344	0
0.42302762	-100.393681958317	143.758338873178	0
0.4230771	-100.161646112666	142.85764499867	0
0.42332445	-99.9305083191172	141.9589861887	0
0.42360929	-99.7002715670593	141.062310496394	0
0.42401107	-99.4709042043531	140.167582190972	0
0.42405125	-99.2423419061643	139.274664942468	0
0.42410904	-99.014527751693	138.383354140513	0
0.42439798	-98.7874360118144	137.493498878649	0
0.42476205	-98.561072006029	136.605038786824	0
0.42511783	-98.3354255994428	135.717854719534	0
0.42515341	-98.1104868239999	134.831851955339	0
0.42519922	-97.8862645362317	133.947021166834	0
0.4254283	-97.6627885496357	133.063364125216	0
0.42564162	-97.4400640948073	132.180854529606	0
0.42621539	-97.2180715509485	131.299426033038	0
0.42627277	-96.9967872533595	130.419014165704	0
0.42638973	-96.7762110910405	129.539601893295	0
0.4266666	-96.556353271795	128.661194788523	0
0.42694902	-96.3372022019643	127.78369446285	0
0.42736566	-96.1187437925161	126.906982687864	0
0.42740732	-95.9009765256514	126.030983784106	0
0.42747122	-95.6839091211936	125.155691557456	0
0.42779069	-95.4675280610132	124.281108269358	0
0.42829512	-95.25179599349	123.407135091358	0
0.42834557	-95.0366973633889	122.533707139747	0
0.42842764	-94.8222352096266	121.660855590578	0
0.42879486	-94.6084075050457	120.7885881135	0
0.42916488	-94.3951856660415	119.91674413385	0
0.42920189	-94.1825420015674	119.045115681847	0
0.42924753	-93.9704778499328	118.173648584066	0
0.42947576	-93.7590114271026	117.302387819628	0
0.42969953	-93.5481419875954	116.431275573276	0
0.43028595	-93.3378787589853	115.560294671891	0
0.43034459	-93.1282665749424	114.689608423307	0
0.43040323	-92.9193580029958	113.819463957345	0
0.43061548	-92.7111877869729	112.949987739474	0
0.43097092	-92.503776564123	112.08121759233	0
0.43142254	-92.2971606530527	111.213234685005	0
0.43146771	-92.0914209231615	110.346278975398	0
0.43153685	-91.8866491944696	109.480642110696	0
0.43188255	-91.6829083553379	108.616520337998	0
0.43229416	-91.4802429530015	107.75404768171	0
0.43233532	-91.2786809644354	106.893321444547	0
0.43239655	-91.07824819912	106.034457879648	0
0.43270272	-90.8789744240372	105.177565621626	0
0.43307068	-90.6808901755403	104.322673259561	0
0.4334499	-90.4840342284174	103.469797066631	0
0.43348782	-90.2884527785442	102.619006246876	0
0.4335358	-90.0941732225425	101.770369719944	0
0.43377569	-89.9011969765231	100.923901627067	0
0.43400064	-89.7095235922316	100.079568844086	0
0.43459676	-89.519151032774	99.2373460318522	0
0.43465637	-89.3300730802472	98.3972027598349	0
0.434744	-89.1422581843179	97.5590480674513	0
0.43518216	-88.9556691692066	96.722795598891	0
0.43563449	-88.7702787358824	95.8883698342569	0
0.43585666	-88.5860584069492	95.0556916769288	0
0.43621929	-88.4029812844297	94.2247398533279	0
0.4367441	-88.221015126534	93.3955370314082	0
0.43679658	-88.0401438137966	92.5682454235167	0
0.43691395	-87.8603556163227	91.7430578898575	0
0.43714193	-87.6816390146956	90.9201114682948	0
0.43736913	-87.5039789241279	90.0994593730509	0
0.43795201	-87.3273614935857	89.2810725828737	0
0.4380103	-87.1517843370662	88.4649778796513	0
0.43806859	-86.9772516641441	87.6513220460364	0
0.43827675	-86.8037579314259	86.8402195432244	0
0.43837728	-86.6312890196204	86.0317650370232	0
0.43866561	-86.4598436382134	85.2261651973671	0
0.43909362	-86.2894388596029	84.4236709170027	0
0.43913642	-86.1200924097767	83.6244742299537	0
0.43919699	-85.951815902462	82.8286675622192	0
0.43949985	-85.7846266722157	82.0363996325195	0
0.43980238	-85.6185480666965	81.2477972956419	0
0.44024162	-85.4535992372095	80.4628788916338	0
0.44028554	-85.2897961219509	79.6816121726449	0
0.44035883	-85.1271543343584	78.9039842579935	0
0.44072525	-84.9656854115573	78.1299378445483	0
0.44115405	-84.8053926049519	77.3593356612803	0
0.44119694	-84.6462747036744	76.59203375659	0
0.44126538	-84.4883301171081	75.827921177257	0
0.44160763	-84.3315604855952	75.0669626842859	0
0.4422917	-84.1759735352911	74.3091358865429	0
0.4423601	-84.0215746472799	73.5543713342868	0
0.44242851	-83.8683619448654	72.802578500746	0
0.44252763	-83.7163174943998	72.0536873214524	0
0.4429519	-83.565422084734	71.3076967255885	0
0.4433271	-83.4156612418906	70.564642607772	0
0.44336462	-83.2670323545776	69.8245793770315	0
0.44341058	-83.1195429857063	69.0875197938046	0
